<svg id="Layer_2" xmlns="http://www.w3.org/2000/svg" viewBox="0 0 51.07 59.82"><defs><style>.cls-1{fill:#333;}</style></defs><g id="Layer_1-2"><path id="Union_1" class="cls-1" d="M16.03,59.72c-2.4-.3-4.7-1.1-6.8-2.4-3.5-2-6.2-5.1-7.7-8.9-1.3-2.9-1.8-6.1-1.4-9.3,.3-2.7,1.1-5.4,2.5-7.8,2.4-4.5,6.7-7.8,11.7-8.9,4.6-1.1,9.3-.4,13.4,2,3,1.8,5.5,4.5,7.1,7.6,1.6,3,2.3,6.4,2.1,9.8-.2,3-1,6-2.5,8.6-1.1,1.9-2.5,3.6-4.2,5-1.6,1.4-3.5,2.5-5.6,3.3-1.9,.7-4,1.1-6,1.1-.9,0-1.8,0-2.6-.1Zm.7-26.2c-2,.4-3.8,1.7-4.7,3.6-.5,1-.9,2-1,3.1-.1,1.3,.1,2.6,.6,3.8,.6,1.5,1.7,2.8,3.1,3.6,.8,.5,1.8,.9,2.7,1,1.2,.2,2.3,0,3.4-.4,.8-.3,1.6-.8,2.2-1.3,.7-.6,1.2-1.2,1.7-2,.6-1.1,.9-2.3,1-3.5,.1-1.4-.2-2.7-.8-4-.6-1.3-1.6-2.3-2.8-3.1-1.1-.7-2.4-1-3.7-1-.5,0-1.1,.1-1.7,.2h0Zm17.7-5.6c-.4-.5-.5-1.1-.6-1.7,0-.5,.2-1,.6-1.4l10.1-9.1,.7-.6c1.7-1.1,4-.7,5.1,1,1.2,1.7,.9,4-.7,5.3l-.7,.5-11.6,7c-.3,.2-.6,.2-.9,.2-.8,0-1.5-.5-2-1.2Zm-5.7-5.4c-.5-.3-.9-.8-1.2-1.3-.2-.5-.2-1.1,0-1.5l5.6-12.6,.4-.8c1.1-1.7,3.3-2.3,5.1-1.3,1.8,1.1,2.4,3.3,1.5,5.1l-.5,.7-7.8,11.3c-.4,.5-1,.8-1.6,.8s-1.1-.1-1.5-.4h0Zm-7.4-2.4c-1.2,0-2.1-.9-2.2-2.1l.1-13.9v-.8C19.53,1.32,21.33-.18,23.33,.02s3.5,2,3.4,4.1l-.1,.9-2.6,13.6c-.1,.5-.4,1-.9,1.2-.4,.2-.9,.4-1.4,.4l-.4-.1Z"/></g></svg>